<svg version="1.1" xmlns="http://www.w3.org/2000/svg" xmlns:xlink="http://www.w3.org/1999/xlink" width="118.53956" height="144.34493" viewBox="0,0,118.53956,144.34493"><g transform="translate(-180.958,-128.622)"><g data-paper-data="{&quot;isPaintingLayer&quot;:true}" fill-rule="nonzero" stroke="none" stroke-width="1" stroke-linecap="butt" stroke-linejoin="miter" stroke-miterlimit="10" stroke-dasharray="" stroke-dashoffset="0" style="mix-blend-mode: normal"><path d="M210.98,260.7c-0.869,3.825 -2.075,8.084 -5.81,9.956c-3.817,1.908 -8.898,1.78 -13.098,2.115c-2.039,0.157 -4.04,0.062 -6.099,0.107c-1.474,0.029 -3.734,0.376 -5.015,-0.533c1.412,-0.603 2.977,-0.652 4.361,-1.396c1.23,-0.727 2.384,-1.575 3.446,-2.532c1.614,-1.364 3.335,-3.099 4.118,-5.102c1.964,-5.044 0.111,-13.525 0.799,-18.763c0.395,-0.145 15.293,-8.515 20.946,-8.068c0.741,1.652 -3.092,21.807 -3.648,24.216z" fill="#da0000"/><path d="M245.418,228.527h15.235c-3.553,18.102 -6.621,38.419 -6.958,42.207c1.136,0.393 2.215,0.05 3.261,0.137c0.037,0.375 0.066,0.673 0.103,1.061c-1.491,-0.087 -7.865,0.178 -9.376,-0.227c0,-1.285 -2.265,-43.178 -2.265,-43.178z" fill="#da0000"/><path d="M193.732,239.541c0.128,-9.361 -0.333,-22.238 7,-29.331c1.347,-1.301 3.2,-2.065 4.637,-3.144c2.19,-1.652 4.776,-2.858 7,-4.498c0.72,-0.525 2.145,-1.735 2.145,-1.735l2.718,-1.45l-0.112,-2.533c0,0 1.866,-5.11 2.17,-6.791c2.002,-10.976 -0.107,-22.308 1.94,-33.305c0.222,-1.206 0.494,-2.511 0.774,-3.738l30.31,-3.838l31.183,2.065c3.627,2.71 -0.441,6.42 -3.434,7.849c-1.763,0.847 -3.397,1.653 -4.9,2.946c-0.326,0.281 -3.051,2.375 -3.953,5.056c-1.371,4.094 -1.005,9.572 -1.1,12.228c-0.177,5.003 0.103,10.055 0.293,15.054c0.374,9.894 0.778,19.416 -0.713,29.248c-0.679,4.498 -1.412,8.77 -4.158,12.508c-2.883,3.921 -6.305,7.155 -10.966,8.841c-8.614,3.111 -48.959,2.123 -51.808,1.83c-2.965,-0.306 -6.069,0.19 -9.001,-0.182c-0.428,-2.189 -0.058,-4.841 -0.025,-7.08z" fill="#ff0000"/><path d="M235.941,227.395c0,0 -10.565,37.514 -10.565,43.864c0.568,0.099 3.545,-0.31 3.977,0.306c-0.362,1.26 -7.696,0.45 -9.182,0.206c-0.457,-1.367 -2.347,-43.244 -2.347,-43.244z" fill="#ff0000"/><path d="M281.741,174.968c0.606,0.169 0.066,6.453 0,8.882c-0.074,2.73 -0.14,5.474 -0.3,8.196c-0.169,2.879 -1.31,5.92 -3.966,7.688c-0.774,0.516 -4.755,2.354 -8.148,2.627c-4.88,0.397 -8.372,-1.107 -9.689,-1.19l-0.325,-0.566c0.093,-1.344 0.108,-2.693 0.045,-4.04c1.054,-0.19 5.266,1.731 9.227,1.405c3.896,-0.318 7.548,-2.88 8.133,-3.883c1.005,-1.723 1.297,-3.673 1.383,-5.639c0.095,-2.198 0,-4.408 0.037,-6.61c0.025,-1.628 -0.564,-7.283 0.062,-7.283c0.626,0 0.206,2.681 0.877,2.726c0.671,0.046 0.507,-2.813 0.881,-2.813c0.375,0 0.083,2.942 0.672,2.942c0.584,0 0.506,-2.611 1.111,-2.442z" fill="#ff0000"/><path d="M237.254,174.555c0.606,0.169 0.066,6.453 0,8.882c-0.074,2.73 -0.14,5.473 -0.3,8.196c-0.169,2.879 -1.697,6.407 -4.353,8.179c-0.761,0.517 -4.368,1.863 -7.761,2.136c-4.867,0.397 -10.294,-1.128 -10.294,-1.128l2.606,-3.982c2.254,0.678 4.615,0.922 6.959,0.719c3.895,-0.318 7.548,-2.88 8.132,-3.883c1.005,-1.723 1.297,-3.673 1.384,-5.639c0.094,-2.198 0,-4.408 0.037,-6.61c0.025,-1.628 -0.564,-7.283 0.062,-7.283c0.625,0 0.205,2.681 0.877,2.726c0.671,0.046 0.506,-2.813 0.881,-2.813c0.375,0 0.082,2.941 0.671,2.941c0.585,0 0.494,-2.61 1.099,-2.441z" fill="#da0000"/><g><path d="M272.45312,151.02725c-0.075,2.466 -0.313,4.755 -1.722,6.87l-1.111,0.524c-3.027,-0.628 -3.035,-5.234 -2.557,-7.559c1.857,0.132 3.57,-0.091 5.39,0.165z" fill="#ffffff"/><path d="M274.17012,149.98625h3.5c1.885,9.476 -6.16,8.919 -3.5,0z" fill="#ffffff"/><path d="M261.80812,148.63125h3.5c1.886,9.476 -6.16,8.923 -3.5,0z" fill="#dcd2b4"/><path d="M256.69012,148.06125h3.504c1.882,9.476 -6.164,8.919 -3.504,0z" fill="#ffffff"/><path d="M251.66312,147.20625h3.504c1.865,9.476 -6.177,8.918 -3.504,0z" fill="#ffffff"/><path d="M279.28412,149.20125h3.504c1.882,9.476 -6.164,8.923 -3.504,0z" fill="#faf0e6"/></g><path d="M248.033,128.94c2.631,-0.128 5.271,-0.07 7.906,-0.157c5.913,-0.198 11.809,0.049 17.726,-0.161c2.92,0.553 5.938,0.285 8.894,0.904c2.541,0.527 4.966,1.506 7.161,2.892c4.184,2.623 6.679,8.072 6.938,12.91c0.12,2.259 -0.44,4.874 -2.528,6.114c-2.314,1.371 -5.765,0.826 -8.314,0.896c-6.588,0.141 -13.176,0.227 -19.764,0.137l-44.001,0.549c0.847,-3.923 2.099,-7.747 3.734,-11.41c1.988,-4.443 5.543,-7.993 9.981,-9.964c3.505,-1.624 11.221,-2.656 12.267,-2.71z" fill="#da0000"/><path d="M298.463,141.549c-0.034,-0.428 0.172,-0.839 0.534,-1.067c0.819,0.182 0.453,1.537 0.161,2.037c-0.394,-0.168 -0.662,-0.542 -0.695,-0.97z" fill="#000000"/><path d="M257.071,141.378c1.322,0.558 0.132,3.169 -1.103,1.517c0.049,-0.843 0.391,-1.302 1.103,-1.517z" fill="#000000"/></g></g></svg>